<?xml version="1.0" encoding="utf-8"?>
<?xml-stylesheet type="text/xsl" href="rss1.xsl"?>
<rss version="2.0" xmlns:atom="http://www.w3.org/2005/Atom" xmlns:content="http://purl.org/rss/1.0/modules/content/" xmlns:dc="http://purl.org/dc/elements/1.1/" xmlns:media="http://search.yahoo.com/mrss/">
<channel>
 <title>Getty</title>
 <link>http://www.gettyimg.com/</link>
 <atom:link href="http://www.gettyimg.com/" rel="self" type="application/rss+xml" />

 
                <item>
                <title><![CDATA[【Apple Music】WEB-RiP - Jack Harlow - Lovin On Me [Apple HD Music Video]]]></title>
                <link><![CDATA[https://sharemania.us/threads/jack-harlow-lovin-on-me-apple-hd-music-video.242264/]]></link>
                <description><![CDATA[<article>
<blockquote class="messageText SelectQuoteContainer ugc baseHtml">
<span style="font-size: 22px"><b>Jack Harlow - Lovin On Me [Apple HD Music Video]</b></span><br>
<br>
<img src="https://imgur.com/bfl4zdo.jpg" class="bbCodeImage LbImage" alt="[​IMG]" data-url="https://imgur.com/bfl4zdo.jpg" style=""><br>
<br>
<div class="bbCodeBlock bbCodeCode">
<div class="type">Code:</div>
<pre>General
Format                         : MPEG-4
Codec ID                       : M4V  (isom/iso4/M4V /mp42)
File size                      : 120 MiB
Duration                       : 2 min 21 s
Overall bit rate mode          : Variable
Overall bit rate               : 7 088 kb/s
Movie name                     : Lovin On Me
Performer                      : Jack Harlow
Genre                          : Hip-Hop/Rap
ContentType                    : Music Video
Recorded date                  : UTC 2023-11-10 08:00:00
Encoded date                   : UTC 2024-03-12 17:45:38
Tagged date                    : UTC 2024-03-12 17:45:38
Copyright                      : ℗ © 2023 Generation Now/Atlantic Recording Corporation
Cover                          : Yes
Rating                         : Explicit
GenreID                        : 1618
AppleStoreCountry              : Canada
AlbumTitleID                   : 1047679432
AppleStoreCatalogID            : 1715709386

Video
ID                             : 2
Format                         : AVC
Format/Info                    : Advanced Video Codec
Format profile                 : High@L4
Format settings                : CABAC / 5 Ref Frames
Format settings, CABAC         : Yes
Format settings, Reference fra : 5 frames
Codec ID                       : avc1
Codec ID/Info                  : Advanced Video Coding
Duration                       : 2 min 21 s
Bit rate                       : 6 814 kb/s
Maximum bit rate               : 15.6 Mb/s
Width                          : 1 440 pixels
Height                         : 1 080 pixels
Display aspect ratio           : 4:3
Frame rate mode                : Constant
Frame rate                     : 23.976 (24000/1001) FPS
Color space                    : YUV
Chroma subsampling             : 4:2:0
Bit depth                      : 8 bits
Scan type                      : Progressive
Bits/(Pixel*Frame)             : 0.183
Stream size                    : 115 MiB (96%)
Title                          : Core Media Video
Encoded date                   : UTC 2024-02-15 04:11:46
Tagged date                    : UTC 2024-03-12 17:45:40
Color range                    : Limited
Color primaries                : BT.709
Transfer characteristics       : BT.709
Matrix coefficients            : BT.709
Codec configuration box        : avcC

Audio
ID                             : 1
Format                         : AAC LC
Format/Info                    : Advanced Audio Codec Low Complexity
Codec ID                       : mp4a-40-2
Duration                       : 2 min 21 s
Duration_LastFrame             : -8 ms
Bit rate mode                  : Variable
Bit rate                       : 265 kb/s
Maximum bit rate               : 396 kb/s
Channel(s)                     : 2 channels
Channel layout                 : L R
Sampling rate                  : 48.0 kHz
Frame rate                     : 46.875 FPS (1024 SPF)
Compression mode               : Lossy
Stream size                    : 4.40 MiB (4%)
Title                          : Core Media Audio
Encoded date                   : UTC 2024-02-15 04:11:44
Tagged date                    : UTC 2024-03-12 17:45:40
</pre>
</div>
<div class="bbCodeBlock bbCodeVfcHH HiddenContent">
<div class="attribution type">Hidden Content:</div>
<blockquote>You must reply before you can see the hidden data contained here.</blockquote>
</div>
<div class="messageTextEndMarker">&nbsp;</div>
</blockquote>
</article>]]></description>
                <author><![CDATA[abby0511]]></author>
                </item>

                
                <item>
                <title><![CDATA[【Requests】[REQ AUD] - Tokio Hotel Albums! Schrei &amp; Zimmer 483 - FLAC]]></title>
                <link><![CDATA[https://sharemania.us/threads/tokio-hotel-albums-schrei-zimmer-483-flac.242263/]]></link>
                <description><![CDATA[<article>
<blockquote class="messageText SelectQuoteContainer ugc baseHtml">
Hello!<br>
<br>
I'm as the title states, <br>
<br>
I'm currently in search of both of the first albums from Tokio Hotel in german.<br>
I've been able to find the English versions but they just sound bad to me <img src="styles/default/xenforo/smilies/unhappy-48.png" class="mceSmilie" alt=":(" title="Frown    :("> If anyone's able to help, I'd love ya forever &lt;3<br>
<br>
Thank you in advance!
<div class="messageTextEndMarker">&nbsp;</div>
</blockquote>
</article>]]></description>
                <author><![CDATA[kazumasaru]]></author>
                </item>

                </channel></rss>